<svg width="22" height="20" viewBox="0 0 22 20" fill="none" xmlns="http://www.w3.org/2000/svg">
<path d="M20 12V2H2V12H20ZM20 0C20.5304 0 21.0391 0.210714 21.4142 0.585786C21.7893 0.960859 22 1.46957 22 2V14C22 14.5304 21.7893 15.0391 21.4142 15.4142C21.0391 15.7893 20.5304 16 20 16H13L15 19V20H7V19L9 16H2C1.46957 16 0.960859 15.7893 0.585786 15.4142C0.210714 15.0391 0 14.5304 0 14V2C0 0.89 0.89 0 2 0H20ZM3 3H14V8H3V3ZM15 3H19V5H15V3ZM19 6V11H15V6H19ZM3 9H8V11H3V9ZM9 9H14V11H9V9Z" fill="#A8BBFF"/>
</svg>
